<svg version="1.1" viewBox="0.0 0.0 420.15223097112863 417.98687664041995" fill="none" stroke="none" stroke-linecap="square" stroke-miterlimit="10" xmlns:xlink="http://www.w3.org/1999/xlink" xmlns="http://www.w3.org/2000/svg"><clipPath id="p.0"><path d="m0 0l420.15222 0l0 417.98688l-420.15222 0l0 -417.98688z" clip-rule="nonzero"/></clipPath><g clip-path="url(#p.0)"><path fill="#000000" fill-opacity="0.0" d="m0 0l420.15222 0l0 417.98688l-420.15222 0z" fill-rule="evenodd"/><path fill="#e06666" d="m281.16144 268.97375l12.157471 -138.70866l100.75589 148.5984z" fill-rule="evenodd"/><path fill="#674ea7" d="m174.21637 324.16888l0 0c-49.59256 -62.708252 -56.375275 -139.98318 -15.149612 -172.59843l0 0c19.797272 -15.662384 48.244232 -18.720718 79.082886 -8.502197c30.838669 10.218506 61.542862 32.87683 85.35808 62.990387l0 0c49.59256 62.708237 56.375244 139.9832 15.149597 172.59843l0 0c-41.225677 32.615234 -114.84839 8.220032 -164.44095 -54.48819z" fill-rule="evenodd"/><path fill="#674ea7" d="m130.85739 260.05984l0 0c8.027695 -64.20419 50.803894 -111.711365 95.543304 -106.110245l0 0c21.48462 2.6897583 40.55789 17.517288 53.023895 41.220703c12.466003 23.703415 17.303589 54.341064 13.448547 85.17299l0 0c-8.02771 64.20419 -50.803894 111.711365 -95.543304 106.11026l0 0c-44.739426 -5.6011353 -74.500145 -62.189514 -66.47244 -126.39371z" fill-rule="evenodd"/><path fill="#674ea7" d="m109.10348 396.43307l0 0c16.464172 -109.03058 99.37258 -190.20453 185.18109 -181.30708l0 0c41.206696 4.27269 77.5849 29.169662 101.131805 69.21385c23.546875 40.04419 32.33362 91.95538 24.427246 144.31369l0 0c-16.464172 109.03061 -99.37256 190.20456 -185.18109 181.3071l0 0c-85.80853 -8.897461 -142.02322 -104.49698 -125.55906 -213.52756z" fill-rule="evenodd"/><path fill="#000000" d="m227.05852 184.13812l0 0c-0.9480133 -8.323395 4.77005 -15.804123 12.771652 -16.708649l0 0c3.8424988 -0.43437195 7.708481 0.7368622 10.747452 3.2560577c3.0389862 2.5191803 5.002014 6.179962 5.45726 10.177002l0 0c0.94802856 8.32341 -4.770035 15.804138 -12.771637 16.708664l0 0c-8.001617 0.90452576 -15.256714 -5.109665 -16.204727 -13.433075z" fill-rule="evenodd"/><path stroke="#000000" stroke-width="1.0" stroke-linejoin="round" stroke-linecap="butt" d="m227.05852 184.13812l0 0c-0.9480133 -8.323395 4.77005 -15.804123 12.771652 -16.708649l0 0c3.8424988 -0.43437195 7.708481 0.7368622 10.747452 3.2560577c3.0389862 2.5191803 5.002014 6.179962 5.45726 10.177002l0 0c0.94802856 8.32341 -4.770035 15.804138 -12.771637 16.708664l0 0c-8.001617 0.90452576 -15.256714 -5.109665 -16.204727 -13.433075z" fill-rule="evenodd"/><path fill="#674ea7" d="m123.112755 602.19135l0 0c-77.21549 -85.49542 -94.602356 -195.62631 -38.83464 -245.98422l0 0c26.780602 -24.18274 67.19439 -31.06543 112.35078 -19.134003c45.156403 11.9314575 91.35643 41.699677 128.43663 82.75604l0 0c77.215485 85.49542 94.602356 195.62634 38.834625 245.98425l0 0c-55.7677 50.35791 -163.5719 21.873352 -240.78738 -63.62207z" fill-rule="evenodd"/><path fill="#674ea7" d="m179.11317 495.20792l0 0c-42.843384 -109.604614 -7.6325226 -217.21841 78.645676 -240.3622l0 0c41.43222 -11.114029 89.340546 -0.86408997 133.18567 28.49495c43.845123 29.35904 80.03549 75.42224 100.60959 128.05624l0 0c42.843414 109.604614 7.6325073 217.21844 -78.64566 240.36218l0 0c-86.2782 23.143799 -190.9519 -46.946594 -233.79527 -156.55118z" fill-rule="evenodd"/><path fill="#674ea7" d="m137.07376 568.7191l0 0c-74.16272 -91.08786 -76.15805 -197.4114 -4.4566956 -237.48035l0 0c34.43219 -19.24176 81.60182 -20.31903 131.13211 -2.9947815c49.530273 17.324219 97.36392 51.63083 132.97812 95.37274l0 0c74.16272 91.08786 76.15805 197.4114 4.4566956 237.48032l0 0c-71.701355 40.06891 -189.94753 -1.2901001 -264.11023 -92.37793z" fill-rule="evenodd"/><path fill="#ffffff" d="m231.43268 181.16014l0 0c-1.6873016 -2.7135925 -1.1443939 -6.0908356 1.2126007 -7.5433044l0 0c1.1318665 -0.6974945 2.5392609 -0.84877014 3.9125519 -0.4205475c1.3733063 0.42823792 2.600006 1.4008942 3.4102783 2.70401l0 0c1.6873016 2.7135925 1.1443939 6.0908356 -1.2126007 7.5433044l0 0c-2.3569946 1.4524689 -5.6355286 0.43013 -7.32283 -2.2834625z" fill-rule="evenodd"/><path stroke="#ffffff" stroke-width="1.0" stroke-linejoin="round" stroke-linecap="butt" d="m231.43268 181.16014l0 0c-1.6873016 -2.7135925 -1.1443939 -6.0908356 1.2126007 -7.5433044l0 0c1.1318665 -0.6974945 2.5392609 -0.84877014 3.9125519 -0.4205475c1.3733063 0.42823792 2.600006 1.4008942 3.4102783 2.70401l0 0c1.6873016 2.7135925 1.1443939 6.0908356 -1.2126007 7.5433044l0 0c-2.3569946 1.4524689 -5.6355286 0.43013 -7.32283 -2.2834625z" fill-rule="evenodd"/><path fill="#ffff00" d="m283.3044 238.49365l0 0c-9.010529 -7.140564 -14.390137 -15.354553 -12.015747 -18.34645l0 0c1.1401978 -1.4367676 3.9526367 -1.4525146 7.8185425 -0.043777466c3.8659058 1.4087372 8.468628 4.1265717 12.795624 7.555588l0 0c9.010498 7.140564 14.390137 15.354553 12.015747 18.34645l0 0c-1.1402283 1.4367676 -3.9526367 1.4525146 -7.8185425 0.043777466c-3.8659058 -1.4087372 -8.468628 -4.1265717 -12.795624 -7.555588z" fill-rule="evenodd"/><path fill="#ffff00" d="m236.72978 241.05891l0 0c-4.200836 -16.385895 -4.2078857 -30.53653 -0.01574707 -31.606308l0 0c2.0131378 -0.51371765 4.7452087 2.119461 7.595169 7.3202667c2.8499603 5.2008057 5.584366 12.543228 7.6016846 20.412018l0 0c4.200836 16.385895 4.2078857 30.536514 0.01574707 31.606308l0 0c-2.0131378 0.5137329 -4.7452087 -2.1194458 -7.595169 -7.320282c-2.8499603 -5.2008057 -5.584366 -12.543228 -7.6016846 -20.412003z" fill-rule="evenodd"/><path fill="#000000" d="m72.435074 112.88693l0 0c66.465515 21.43039 109.749344 71.66615 96.67717 112.20473c-13.072189 40.53856 -77.55024 56.028824 -144.01575 34.598434l0 0c48.254288 -0.9291687 84.1721 -20.318207 93.9793 -50.731613c9.807205 -30.413422 -8.018349 -67.130875 -46.640717 -96.07155z" fill-rule="evenodd"/></g></svg>