<?xml version="1.0" encoding="UTF-8" standalone="no"?>
<svg
   xmlns:dc="http://purl.org/dc/elements/1.1/"
   xmlns:cc="http://creativecommons.org/ns#"
   xmlns:rdf="http://www.w3.org/1999/02/22-rdf-syntax-ns#"
   xmlns:svg="http://www.w3.org/2000/svg"
   xmlns="http://www.w3.org/2000/svg"
   xmlns:sodipodi="http://sodipodi.sourceforge.net/DTD/sodipodi-0.dtd"
   xmlns:inkscape="http://www.inkscape.org/namespaces/inkscape"
   version="1.1"
   viewBox="0.0 0.0 420.15223097112863 417.98687664041995"
   fill="none"
   stroke="none"
   stroke-linecap="square"
   stroke-miterlimit="10"
   id="svg126"
   sodipodi:docname="singing-bird.svg"
   inkscape:version="0.92.2 5c3e80d, 2017-08-06">
  <metadata
     id="metadata132">
    <rdf:RDF>
      <cc:Work
         rdf:about="">
        <dc:format>image/svg+xml</dc:format>
        <dc:type
           rdf:resource="http://purl.org/dc/dcmitype/StillImage" />
        <dc:title></dc:title>
      </cc:Work>
    </rdf:RDF>
  </metadata>
  <defs
     id="defs130" />
  <sodipodi:namedview
     pagecolor="#ffffff"
     bordercolor="#666666"
     borderopacity="1"
     objecttolerance="10"
     gridtolerance="10"
     guidetolerance="10"
     inkscape:pageopacity="0"
     inkscape:pageshadow="2"
     inkscape:window-width="1440"
     inkscape:window-height="855"
     id="namedview128"
     showgrid="false"
     inkscape:zoom="0.79848057"
     inkscape:cx="247.26986"
     inkscape:cy="173.57082"
     inkscape:window-x="0"
     inkscape:window-y="0"
     inkscape:window-maximized="0"
     inkscape:current-layer="g124"
     inkscape:pagecheckerboard="true" />
  <clipPath
     id="p.0">
    <path
       d="m0 0l420.15222 0l0 417.98688l-420.15222 0l0 -417.98688z"
       clip-rule="nonzero"
       id="path91" />
  </clipPath>
  <g
     clip-path="url(#p.0)"
     id="g124">
    <path
       style="fill:none;fill-rule:evenodd;stroke:#ffffff;stroke-opacity:0.99526066;stroke-width:10;stroke-miterlimit:10;stroke-dasharray:none;stroke-linejoin:round"
       d="M 293.31836 124.26562 L 289.16797 171.62695 C 290.83257 172.95289 292.52976 174.19937 294.16602 175.58984 C 297.66999 178.56748 301.10627 181.68993 304.46094 184.94922 C 307.8156 188.20851 311.08861 191.60352 314.26758 195.125 C 317.44655 198.64648 320.53091 202.2944 323.50781 206.05859 C 327.20354 210.73172 330.66105 215.4864 333.87891 220.29688 C 337.09677 225.10735 340.07471 229.97429 342.81055 234.87305 C 345.54639 239.77181 348.04135 244.70265 350.29102 249.64062 C 352.54069 254.5786 354.54534 259.52305 356.30469 264.45117 C 360.60346 266.28765 364.86893 268.49155 369.13477 270.67969 L 394.07422 272.86328 L 293.31836 124.26562 z "
       id="path96" />
    <path
       style="fill:#fbfbfb;fill-rule:evenodd;stroke:none;stroke-width:10;stroke-miterlimit:10;stroke-dasharray:none;stroke-opacity:0.99526068;fill-opacity:1"
       d="M 241.27148 167.3418 C 240.7921 167.34642 240.31039 167.37539 239.83008 167.42969 C 231.82848 168.33422 226.11058 175.81527 227.05859 184.13867 C 228.0066 192.46208 235.26205 198.47484 243.26367 197.57031 C 251.26527 196.66579 256.98319 189.18669 256.03516 180.86328 C 255.57992 176.86624 253.61712 173.20473 250.57812 170.68555 C 247.91903 168.48125 244.62718 167.30943 241.27148 167.3418 z M 237.01562 172.95703 C 237.52387 172.95639 238.04361 173.03668 238.55859 173.19727 C 239.9319 173.62551 241.15848 174.59727 241.96875 175.90039 C 243.65605 178.61398 243.11285 181.99089 240.75586 183.44336 C 238.39887 184.89583 235.12089 183.87375 233.43359 181.16016 C 231.74629 178.44657 232.28754 175.06965 234.64453 173.61719 C 235.35195 173.18125 236.16855 172.95811 237.01562 172.95703 z "
       id="path104" />
    <path
       d="M 242.70312 167.40039 C 241.75285 167.31231 240.7907 167.32109 239.83008 167.42969 C 231.82848 168.33421 226.11058 175.81528 227.05859 184.13867 C 228.00661 192.46208 235.26205 198.47484 243.26367 197.57031 C 251.26527 196.66579 256.98318 189.18669 256.03516 180.86328 C 255.57991 176.86624 253.61711 173.20473 250.57812 170.68555 C 248.2989 168.79615 245.55394 167.66464 242.70312 167.40039 z M 234.51172 172.98438 C 235.17671 172.9129 235.87195 172.9812 236.55859 173.19531 C 237.24525 173.40943 237.89499 173.76112 238.47461 174.2207 C 239.05423 174.68029 239.56361 175.24883 239.96875 175.90039 C 240.39058 176.57879 240.67271 177.29862 240.82227 178.01953 C 240.97182 178.74044 240.98863 179.462 240.87891 180.14453 C 240.76919 180.82707 240.53177 181.46993 240.17578 182.0332 C 239.8198 182.59647 239.34511 183.08024 238.75586 183.44336 C 238.16661 183.80648 237.51869 184.01602 236.85352 184.08203 C 236.18834 184.14804 235.50634 184.06989 234.84375 183.86328 C 234.18116 183.65667 233.5385 183.31998 232.95703 182.86523 C 232.37556 182.41049 231.85542 181.83855 231.43359 181.16016 C 231.01177 180.48176 230.72768 179.76193 230.57812 179.04102 C 230.42857 178.32011 230.41177 177.59855 230.52148 176.91602 C 230.6312 176.23348 230.86862 175.59061 231.22461 175.02734 C 231.5806 174.46407 232.05528 173.9803 232.64453 173.61719 C 233.21046 173.26844 233.84673 173.05585 234.51172 172.98438 z "
       id="path106"
       style="stroke-width:10;stroke-miterlimit:10;stroke-dasharray:none;stroke:none;stroke-opacity:0.99526066" />
    <path
       style="stroke:#ffffff;stroke-width:10;stroke-miterlimit:10;stroke-dasharray:none;stroke-opacity:0.99526066"
       d="M 130.76562 261.28516 C 125.41244 306.78517 138.96546 348.31909 163.38281 370.35547 C 157.37479 408.17968 162.04111 451.53193 179.11328 495.20703 C 221.95665 604.81162 326.63 674.90356 412.9082 651.75977 C 499.18637 628.61603 534.3981 521.0011 491.55469 411.39648 C 470.98059 358.76248 434.79044 312.69888 390.94531 283.33984 C 379.60985 275.74953 368.0012 269.44802 356.30469 264.45117 C 349.2673 244.73869 338.29072 224.75111 323.50781 206.05859 C 299.69259 175.94504 268.98906 153.28687 238.15039 143.06836 C 226.5859 139.23641 215.35674 137.27198 204.79492 137.13867 C 187.19189 136.91649 171.4397 141.78132 159.06641 151.57031 C 155.57007 154.3364 152.52926 157.51426 149.7207 160.88672 C 149.99928 161.20322 150.32589 161.50653 150.59961 161.82422 C 152.7865 164.36235 154.8194 166.93764 156.6875 169.54102 C 158.5556 172.14439 160.25986 174.77597 161.79297 177.42578 C 163.32607 180.0756 164.68723 182.74247 165.86914 185.41992 C 167.05106 188.09738 168.05266 190.78441 168.86719 193.4707 C 169.68171 196.157 170.30929 198.84319 170.74023 201.51953 C 171.17117 204.19587 171.40635 206.86219 171.4375 209.50977 C 171.46865 212.15735 171.29499 214.7867 170.91016 217.38672 C 170.52533 219.98674 169.92834 222.55814 169.11133 225.0918 C 168.29432 227.62546 167.27687 230.06141 166.07031 232.39648 C 164.86376 234.73156 163.46845 236.96502 161.89648 239.0957 C 160.32452 241.22639 158.57731 243.25332 156.66406 245.17383 C 154.75081 247.09433 152.67181 248.90876 150.44141 250.61328 C 148.211 252.31781 145.82811 253.91374 143.30469 255.39648 C 140.78126 256.87923 138.11849 258.24873 135.32617 259.50391 C 133.8711 260.15797 132.28872 260.69408 130.76562 261.28516 z "
       id="path1073" />
    <path
       style="fill:none;fill-rule:evenodd;stroke:#ffffff;stroke-width:10;stroke-linejoin:round;stroke-miterlimit:10;stroke-dasharray:none;stroke-opacity:0.99526066"
       id="path1070"
       d="m 70.435076,113.1158 v 0 c 66.465514,21.43039 109.749344,71.66615 96.677174,112.20473 -13.07219,40.53856 -77.550244,56.02883 -144.015754,34.59844 v 0 C 71.350786,258.9898 107.2686,239.60076 117.0758,209.18735 126.883,178.77393 109.05745,142.05647 70.435076,113.1158 Z"
       inkscape:connector-curvature="0" />
  </g>
</svg>
