<svg version="1.1" viewBox="0.0 0.0 420.15223097112863 417.98687664041995" fill="none" stroke="none" stroke-linecap="square" stroke-miterlimit="10" xmlns:xlink="http://www.w3.org/1999/xlink" xmlns="http://www.w3.org/2000/svg"><clipPath id="p.0"><path d="m0 0l420.15222 0l0 417.98688l-420.15222 0l0 -417.98688z" clip-rule="nonzero"/></clipPath><g clip-path="url(#p.0)"><path fill="#000000" fill-opacity="0.0" d="m0 0l420.15222 0l0 417.98688l-420.15222 0z" fill-rule="evenodd"/><path fill="#2be76c" d="m-197.52292 -10.13377l849.71655 0.010104179l0.012329102 663.4818l-849.71655 -0.010070801z" fill-rule="evenodd"/><path stroke="#ffffff" stroke-width="1.0" stroke-linejoin="round" stroke-linecap="butt" d="m-197.52292 -10.13377l849.71655 0.010104179l0.012329102 663.4818l-849.71655 -0.010070801z" fill-rule="evenodd"/><path fill="#29d386" d="m328.8084 95.30653l0 0c0 -19.549995 15.848389 -35.398396 35.398376 -35.398396l42.21109 0l0 0c9.388245 0 18.391968 3.7294617 25.030457 10.367947c6.638489 6.638489 10.36795 15.642204 10.36795 25.030449l0 37.455185c0 19.549988 -15.848419 35.39839 -35.398407 35.39839l-42.21109 0c-19.549988 0 -35.398376 -15.848404 -35.398376 -35.39839z" fill-rule="evenodd"/><path fill="#674ea7" d="m327.35986 309.08536l63.787415 -107.53163l3.884613 147.6732z" fill-rule="evenodd"/><path fill="#ffff00" d="m217.04103 279.4747l0 0c-13.587509 -72.85719 15.257324 -139.34787 64.42674 -148.51108l0 0c23.611969 -4.400337 48.848907 5.2781982 70.158936 26.906418c21.310028 21.62822 36.94757 53.434464 43.472504 88.42172l0 0c13.587524 72.85719 -15.257324 139.34789 -64.42673 148.5111l0 0c-49.169403 9.163208 -100.043945 -42.470947 -113.631454 -115.328156z" fill-rule="evenodd"/><path stroke="#ffff00" stroke-width="1.0" stroke-linejoin="round" stroke-linecap="butt" d="m217.04103 279.4747l0 0c-13.587509 -72.85719 15.257324 -139.34787 64.42674 -148.51108l0 0c23.611969 -4.400337 48.848907 5.2781982 70.158936 26.906418c21.310028 21.62822 36.94757 53.434464 43.472504 88.42172l0 0c13.587524 72.85719 -15.257324 139.34789 -64.42673 148.5111l0 0c-49.169403 9.163208 -100.043945 -42.470947 -113.631454 -115.328156z" fill-rule="evenodd"/><path fill="#ffff00" d="m196.86697 237.95436l0 0c30.865524 -56.85913 88.004 -85.51059 127.622345 -63.994827l0 0c19.025421 10.33223 31.383514 31.088028 34.355682 57.70137c2.9721375 26.613327 -3.6851196 56.90419 -18.507263 84.20888l0 0c-30.86554 56.85913 -88.00401 85.51059 -127.62236 63.994843l0 0c-39.618362 -21.515778 -46.71393 -85.05115 -15.848404 -141.91026z" fill-rule="evenodd"/><path stroke="#ffff00" stroke-width="1.0" stroke-linejoin="round" stroke-linecap="butt" d="m196.86697 237.95436l0 0c30.865524 -56.85913 88.004 -85.51059 127.622345 -63.994827l0 0c19.025421 10.33223 31.383514 31.088028 34.355682 57.70137c2.9721375 26.613327 -3.6851196 56.90419 -18.507263 84.20888l0 0c-30.86554 56.85913 -88.00401 85.51059 -127.62236 63.994843l0 0c-39.618362 -21.515778 -46.71393 -85.05115 -15.848404 -141.91026z" fill-rule="evenodd"/><path fill="#ffff00" d="m115.38607 359.242l0 0c52.422707 -96.56546 145.96463 -147.12895 208.9318 -112.93672l0 0c30.237885 16.419693 49.236877 50.58821 52.817383 94.98891c3.580536 44.400696 -8.55072 95.396454 -33.724976 141.76883l0 0c-52.4227 96.56546 -145.96465 147.12894 -208.9318 112.93674l0 0c-62.967148 -34.19226 -71.51511 -140.19229 -19.092415 -236.75775z" fill-rule="evenodd"/><path stroke="#ffff00" stroke-width="1.0" stroke-linejoin="round" stroke-linecap="butt" d="m115.38607 359.242l0 0c52.422707 -96.56546 145.96463 -147.12895 208.9318 -112.93672l0 0c30.237885 16.419693 49.236877 50.58821 52.817383 94.98891c3.580536 44.400696 -8.55072 95.396454 -33.724976 141.76883l0 0c-52.4227 96.56546 -145.96465 147.12894 -208.9318 112.93674l0 0c-62.967148 -34.19226 -71.51511 -140.19229 -19.092415 -236.75775z" fill-rule="evenodd"/><path fill="#000000" d="m313.70514 197.34323l0 0c1.9998474 -7.514221 8.697266 -12.2547 14.959137 -10.588165l0 0c3.0070496 0.8003082 5.50943 3.0012817 6.9566345 6.118744c1.4472351 3.1174622 1.7207336 6.896042 0.760376 10.504501l0 0c-1.9998474 7.514221 -8.697266 12.2547 -14.959137 10.58815l0 0c-6.261841 -1.6665497 -9.716858 -9.109024 -7.7170105 -16.62323z" fill-rule="evenodd"/><path stroke="#000000" stroke-width="1.0" stroke-linejoin="round" stroke-linecap="butt" d="m313.70514 197.34323l0 0c1.9998474 -7.514221 8.697266 -12.2547 14.959137 -10.588165l0 0c3.0070496 0.8003082 5.50943 3.0012817 6.9566345 6.118744c1.4472351 3.1174622 1.7207336 6.896042 0.760376 10.504501l0 0c-1.9998474 7.514221 -8.697266 12.2547 -14.959137 10.58815l0 0c-6.261841 -1.6665497 -9.716858 -9.109024 -7.7170105 -16.62323z" fill-rule="evenodd"/><path fill="#000000" d="m148.23459 190.61835l0 0c-7.470093 -40.042297 11.945572 -77.244934 43.366074 -83.09442l0 0c15.088669 -2.809021 30.984375 2.1356888 44.190247 13.746361c13.205872 11.610664 22.640152 28.93621 26.227432 48.1652l0 0c7.470093 40.042297 -11.945572 77.244934 -43.36609 83.09442l0 0c-31.420502 5.8494873 -62.94757 -21.869263 -70.41766 -61.91156z" fill-rule="evenodd"/><path stroke="#000000" stroke-width="1.0" stroke-linejoin="round" stroke-linecap="butt" d="m148.23459 190.61835l0 0c-7.470093 -40.042297 11.945572 -77.244934 43.366074 -83.09442l0 0c15.088669 -2.809021 30.984375 2.1356888 44.190247 13.746361c13.205872 11.610664 22.640152 28.93621 26.227432 48.1652l0 0c7.470093 40.042297 -11.945572 77.244934 -43.36609 83.09442l0 0c-31.420502 5.8494873 -62.94757 -21.869263 -70.41766 -61.91156z" fill-rule="evenodd"/><path fill="#2be76c" d="m137.85162 187.22679l0 0c-12.422379 -34.4209 -0.0079193115 -70.42969 27.728455 -80.427864l0 0c13.319473 -4.8012924 28.463196 -2.8396149 42.099686 5.4534836c13.63649 8.293098 24.648743 22.238297 30.614182 38.76779l0 0c12.422379 34.420914 0.0079193115 70.4297 -27.728455 80.42787l0 0c-27.736374 9.998169 -60.29149 -9.800369 -72.71387 -44.221283z" fill-rule="evenodd"/><path fill="#29d386" d="m29.805775 302.75287l0 0c0 -21.888214 17.743908 -39.63214 39.63213 -39.63214l33.743614 0l0 0c10.511093 0 20.591682 4.175537 28.024155 11.608002c7.4324646 7.4324646 11.607971 17.513031 11.607971 28.02414l0 28.987701c0 21.888214 -17.743904 39.63214 -39.632126 39.63214l-33.743614 0c-21.888222 0 -39.63213 -17.743927 -39.63213 -39.63214z" fill-rule="evenodd"/><path fill="#ffff00" d="m109.24673 540.17206l0 0c-40.75815 -107.765045 -16.831612 -216.6651 53.441414 -243.23508l0 0c33.746307 -12.759338 73.8857 -4.438263 111.58795 23.13272c37.70227 27.570984 69.87903 72.13336 89.45178 123.88397l0 0c40.75815 107.765076 16.831604 216.6651 -53.441406 243.23505l0 0c-70.27304 26.570007 -160.2816 -39.251587 -201.03973 -147.01666z" fill-rule="evenodd"/><path stroke="#ffff00" stroke-width="1.0" stroke-linejoin="round" stroke-linecap="butt" d="m109.24673 540.17206l0 0c-40.75815 -107.765045 -16.831612 -216.6651 53.441414 -243.23508l0 0c33.746307 -12.759338 73.8857 -4.438263 111.58795 23.13272c37.70227 27.570984 69.87903 72.13336 89.45178 123.88397l0 0c40.75815 107.765076 16.831604 216.6651 -53.441406 243.23505l0 0c-70.27304 26.570007 -160.2816 -39.251587 -201.03973 -147.01666z" fill-rule="evenodd"/><path fill="#ffff00" d="m127.96856 463.52063l0 0c6.8736954 -115.00635 73.24145 -204.59958 148.23651 -200.11209l0 0c36.013916 2.1549377 69.241516 26.160889 92.37314 66.736755c23.131592 40.575867 34.2724 94.39795 30.971527 149.62592l0 0c-6.8736877 115.00638 -73.241455 204.59958 -148.23651 200.11209l0 0c-74.99509 -4.487488 -130.21837 -101.35632 -123.34467 -216.36267z" fill-rule="evenodd"/><path stroke="#ffff00" stroke-width="1.0" stroke-linejoin="round" stroke-linecap="butt" d="m127.96856 463.52063l0 0c6.8736954 -115.00635 73.24145 -204.59958 148.23651 -200.11209l0 0c36.013916 2.1549377 69.241516 26.160889 92.37314 66.736755c23.131592 40.575867 34.2724 94.39795 30.971527 149.62592l0 0c-6.8736877 115.00638 -73.241455 204.59958 -148.23651 200.11209l0 0c-74.99509 -4.487488 -130.21837 -101.35632 -123.34467 -216.36267z" fill-rule="evenodd"/><path fill="#ffff00" d="m68.73609 519.29517l0 0c-24.027618 -107.21857 13.173981 -206.83603 83.092094 -222.50183l0 0c33.575867 -7.5229797 70.36018 5.7157593 102.26083 36.803833c31.900665 31.088104 56.304504 77.47894 67.84296 128.96713l0 0c24.027618 107.21854 -13.173981 206.83603 -83.09209 222.5018l0 0c-69.91812 15.6658325 -146.07617 -58.55237 -170.10379 -165.77094z" fill-rule="evenodd"/><path stroke="#ffff00" stroke-width="1.0" stroke-linejoin="round" stroke-linecap="butt" d="m68.73609 519.29517l0 0c-24.027618 -107.21857 13.173981 -206.83603 83.092094 -222.50183l0 0c33.575867 -7.5229797 70.36018 5.7157593 102.26083 36.803833c31.900665 31.088104 56.304504 77.47894 67.84296 128.96713l0 0c24.027618 107.21854 -13.173981 206.83603 -83.09209 222.5018l0 0c-69.91812 15.6658325 -146.07617 -58.55237 -170.10379 -165.77094z" fill-rule="evenodd"/><path fill="#ffffff" d="m319.27606 193.13815l0 0c-0.58532715 -3.1439667 1.15094 -6.1038513 3.8781128 -6.6111145l0 0c1.3096008 -0.24359131 2.6772766 0.122543335 3.802063 1.017868c1.1248169 0.89533997 1.9146423 2.2465057 2.1957397 3.7562866l0 0c0.58532715 3.1439667 -1.15094 6.1038513 -3.8781128 6.6111145l0 0c-2.7271423 0.5072632 -5.412445 -1.6302032 -5.9978027 -4.7741547z" fill-rule="evenodd"/><path stroke="#ffffff" stroke-width="1.0" stroke-linejoin="round" stroke-linecap="butt" d="m319.27606 193.13815l0 0c-0.58532715 -3.1439667 1.15094 -6.1038513 3.8781128 -6.6111145l0 0c1.3096008 -0.24359131 2.6772766 0.122543335 3.802063 1.017868c1.1248169 0.89533997 1.9146423 2.2465057 2.1957397 3.7562866l0 0c0.58532715 3.1439667 -1.15094 6.1038513 -3.8781128 6.6111145l0 0c-2.7271423 0.5072632 -5.412445 -1.6302032 -5.9978027 -4.7741547z" fill-rule="evenodd"/><path fill="#e69138" d="m338.10196 279.4158l0 0c-3.8478088 -12.292725 -3.7913818 -23.251434 0.12597656 -24.476974l0 0c1.8811951 -0.5885315 4.4193726 1.1920624 7.0561523 4.9500885c2.6367798 3.7579956 5.1561584 9.185608 7.003937 15.088776l0 0c3.8478088 12.292725 3.7914124 23.251434 -0.12597656 24.47699l0 0c-1.8811951 0.588501 -4.419342 -1.1920776 -7.056122 -4.9501038c-2.6367798 -3.7580261 -5.156189 -9.185608 -7.0039673 -15.088776z" fill-rule="evenodd"/><path fill="#e69138" d="m288.96658 268.89532l0 0c-0.11227417 -14.187698 3.4588013 -25.714066 7.9762573 -25.744843l0 0c2.1693726 -0.014785767 4.2713013 2.6775665 5.843384 7.484741c1.5720825 4.80719 2.4855652 11.335449 2.5394897 18.14862l0 0c0.11227417 14.187683 -3.4588318 25.71405 -7.976288 25.744843l0 0c-2.169342 0.014770508 -4.2712708 -2.6775818 -5.8433533 -7.4847717c-1.572113 -4.8071594 -2.4855957 -11.335419 -2.5394897 -18.14859z" fill-rule="evenodd"/><path fill="#000000" fill-opacity="0.0" d="m184.95488 112.801216c8.312393 0.035469055 4.180481 19.77723 -1.7447662 26.50019c-6.3471985 7.201706 -20.0298 12.53421 -18.860474 21.779922c0.7586365 5.9984283 12.462967 7.545624 10.696121 13.529251c-1.6976318 5.749237 -9.946777 10.955124 -7.899338 16.24118c3.4438934 8.891357 16.392197 13.391907 15.580139 23.314423" fill-rule="evenodd"/><path stroke="#000000" stroke-width="3.0" stroke-linejoin="round" stroke-linecap="butt" d="m184.95488 112.801216c8.312393 0.035469055 4.180481 19.77723 -1.7447662 26.50019c-6.3471985 7.201706 -20.0298 12.53421 -18.860474 21.779922c0.7586365 5.9984283 12.462967 7.545624 10.696121 13.529251c-1.6976318 5.749237 -9.946777 10.955124 -7.899338 16.24118c3.4438934 8.891357 16.392197 13.391907 15.580139 23.314423" fill-rule="evenodd"/><path fill="#000000" fill-opacity="0.0" d="m161.09456 61.904434c11.0433655 1.0597572 2.9322052 26.994606 -5.8351135 35.276375c-9.391647 8.871521 -28.284851 14.346535 -27.957436 26.870728c0.2124176 8.12542 15.563454 11.622749 12.421196 19.4208c-3.019165 7.4926147 -14.673912 13.459717 -12.653999 20.788116c3.3975601 12.32663 20.010124 19.930527 17.614265 33.119797" fill-rule="evenodd"/><path stroke="#000000" stroke-width="3.0" stroke-linejoin="round" stroke-linecap="butt" d="m161.09456 61.904434c11.0433655 1.0597572 2.9322052 26.994606 -5.8351135 35.276375c-9.391647 8.871521 -28.284851 14.346535 -27.957436 26.870728c0.2124176 8.12542 15.563454 11.622749 12.421196 19.4208c-3.019165 7.4926147 -14.673912 13.459717 -12.653999 20.788116c3.3975601 12.32663 20.010124 19.930527 17.614265 33.119797" fill-rule="evenodd"/><path fill="#000000" fill-opacity="0.0" d="m142.83138 14.513858c14.571793 4.906064 -3.1092224 36.518703 -17.06099 44.65078c-14.945274 8.71117 -41.77884 9.925655 -44.610306 26.54034c-1.8369904 10.779243 17.890022 20.267487 11.627945 29.549232c-6.0167923 8.918182 -23.246254 13.08139 -22.444733 23.384216c1.3481979 17.329773 21.698662 32.63257 15.031822 49.258713" fill-rule="evenodd"/><path stroke="#000000" stroke-width="3.0" stroke-linejoin="round" stroke-linecap="butt" d="m142.83138 14.513858c14.571793 4.906064 -3.1092224 36.518703 -17.06099 44.65078c-14.945274 8.71117 -41.77884 9.925655 -44.610306 26.54034c-1.8369904 10.779243 17.890022 20.267487 11.627945 29.549232c-6.0167923 8.918182 -23.246254 13.08139 -22.444733 23.384216c1.3481979 17.329773 21.698662 32.63257 15.031822 49.258713" fill-rule="evenodd"/><path fill="#29d386" d="m218.38452 -7.098068l0 0c0 -26.671494 21.621506 -48.293007 48.293 -48.293007l62.784058 0l0 0c12.808105 0 25.091614 5.0879974 34.148315 14.144695c9.056702 9.056694 14.144714 21.34021 14.144714 34.14831l0 51.099022c0 26.671494 -21.621521 48.293007 -48.29303 48.293007l-62.784058 0l0 0c-26.671494 0 -48.293 -21.621513 -48.293 -48.293007z" fill-rule="evenodd"/></g></svg>